<svg xmlns="http://www.w3.org/2000/svg" width="128" height="128" viewBox="0 0 128 128" role="img" aria-labelledby="title desc">
  <title id="title">ClickTabUniq icon</title>
  <desc id="desc">Stacked browser tabs with a duplicate-removal badge.</desc>
  <defs>
    <linearGradient id="bg" x1="18" y1="8" x2="112" y2="122" gradientUnits="userSpaceOnUse">
      <stop offset="0" stop-color="#0f766e"/>
      <stop offset="0.56" stop-color="#155e75"/>
      <stop offset="1" stop-color="#0f172a"/>
    </linearGradient>
    <linearGradient id="tabBack" x1="23" y1="35" x2="94" y2="99" gradientUnits="userSpaceOnUse">
      <stop offset="0" stop-color="#5eead4"/>
      <stop offset="1" stop-color="#0f766e"/>
    </linearGradient>
    <linearGradient id="tabFront" x1="36" y1="44" x2="92" y2="106" gradientUnits="userSpaceOnUse">
      <stop offset="0" stop-color="#ecfeff"/>
      <stop offset="1" stop-color="#99f6e4"/>
    </linearGradient>
  </defs>
  <rect width="128" height="128" rx="28" fill="#ccfbf1"/>
  <g transform="translate(-8 -13)">
    <path d="M23 72V38c0-8 5-13 13-13h18c6 0 9 2 13 7l4 5h27c8 0 13 5 13 13v22c0 8-5 13-13 13H36c-8 0-13-5-13-13Z" fill="#14b8a6"/>
    <path d="M23 54h88v18c0 8-5 13-13 13H36c-8 0-13-5-13-13V54Z" fill="#5eead4"/>
    <path d="M35 91V55c0-8 5-13 13-13h19c6 0 9 2 13 7l4 5h24c8 0 13 5 13 13v24c0 8-5 13-13 13H48c-8 0-13-5-13-13Z" fill="#0f766e"/>
    <path d="M35 69h86v22c0 8-5 13-13 13H48c-8 0-13-5-13-13V69Z" fill="#14b8a6"/>
  </g>
  <circle cx="44" cy="84" r="34.75" fill="#155e75" stroke="#ecfeff" stroke-width="4"/>
  <path d="M26 84h36" stroke="#ecfeff" stroke-width="12" stroke-linecap="round"/>
</svg>
